<svg xmlns="http://www.w3.org/2000/svg" viewBox="0 0 150 45"><g fill="none" fill-rule="evenodd"><path fill="#000" d="M0 4.13C0 1.85 1.85 0 4.132 0h141.736A4.132 4.132 0 0 1 150 4.13v36.263a4.132 4.132 0 0 1-4.132 4.132H4.132A4.132 4.132 0 0 1 0 40.393V4.13z"/><path fill="#FFF" d="M57.576 34.194h2.52L54.58 18.91h-2.553l-5.52 15.284h2.437l1.41-4.057h5.825l1.4 4.057zm-4.397-12.51h.18l2.21 6.462h-4.62l2.22-6.462zm13.6.784c-1.57 0-2.93.784-3.62 2.097h-.17V22.66h-2.2v15.274h2.27v-5.488h.18c.6 1.22 1.91 1.94 3.55 1.94 2.91 0 4.76-2.3 4.76-5.965 0-3.66-1.86-5.95-4.79-5.95zm-.65 9.872c-1.91 0-3.11-1.504-3.11-3.908 0-2.415 1.19-3.92 3.11-3.92 1.93 0 3.08 1.473 3.08 3.91 0 2.446-1.16 3.918-3.1 3.918zm12.46-9.872c-1.57 0-2.93.784-3.63 2.097h-.17V22.66H72.6v15.274h2.28v-5.488h.18c.603 1.22 1.906 1.94 3.55 1.94 2.912 0 4.766-2.3 4.766-5.965 0-3.66-1.85-5.95-4.786-5.95zm-.65 9.872c-1.91 0-3.11-1.504-3.11-3.908 0-2.415 1.2-3.92 3.11-3.92 1.92 0 3.08 1.473 3.08 3.91 0 2.446-1.16 3.918-3.1 3.918zm10.26-2.256c.17 2.733 2.44 4.48 5.83 4.48 3.62 0 5.89-1.832 5.89-4.755 0-2.3-1.29-3.57-4.43-4.31l-1.69-.42c-1.99-.47-2.8-1.09-2.8-2.18 0-1.38 1.25-2.28 3.12-2.28 1.78 0 3.01.88 3.23 2.29h2.31c-.14-2.58-2.41-4.39-5.51-4.39-3.34 0-5.56 1.81-5.56 4.53 0 2.25 1.26 3.58 4.02 4.23l1.97.47c2.02.47 2.91 1.17 2.91 2.34 0 1.35-1.4 2.34-3.307 2.34-2.044 0-3.463-.93-3.664-2.38H88.2zm13.68-10.222v2.85h-1.89v1.917h1.89v6.51c0 2.22 1 3.11 3.53 3.11.44 0 .86-.06 1.22-.12v-1.89c-.32.03-.5.05-.85.05-1.14 0-1.64-.53-1.64-1.74v-5.93h2.584V22.7h-2.584v-2.85h-2.275zm10.51 12.53c-1.98 0-3.1-1.45-3.1-3.97 0-2.5 1.11-3.963 3.09-3.963 1.97 0 3.09 1.46 3.09 3.96 0 2.51-1.13 3.97-3.1 3.97zm0 2.025c3.37 0 5.43-2.257 5.43-5.996 0-3.71-2.08-5.98-5.44-5.98-3.37 0-5.45 2.27-5.45 5.99 0 3.74 2.07 6 5.45 6zm6.47-.223h2.28v-6.81c0-1.622 1.22-2.713 2.93-2.713.38 0 1.08.08 1.26.14v-2.24c-.25-.06-.68-.09-1.01-.09-1.51 0-2.78.83-3.11 1.96h-.17v-1.77h-2.19V34.2zm11.6-9.82c1.68 0 2.78 1.176 2.84 2.988h-5.83c.13-1.8 1.31-2.987 2.99-2.987zm2.83 6.706c-.43.9-1.37 1.398-2.75 1.398-1.82 0-3-1.282-3.07-3.305v-.127h8.15v-.794c0-3.623-1.94-5.816-5.15-5.816-3.25 0-5.32 2.34-5.32 6.027 0 3.687 2.02 5.954 5.33 5.954 2.64 0 4.48-1.27 5-3.337h-2.19zM48.64 6.977v7.28h2.628c2.17 0 3.425-1.338 3.425-3.663 0-2.29-1.266-3.617-3.425-3.617H48.64zm1.13 1.03h1.372c1.508 0 2.4.958 2.4 2.602 0 1.67-.876 2.61-2.4 2.61H49.77V8zm8.9 5.392c-.944 0-1.474-.7-1.474-1.9 0-1.19.53-1.89 1.473-1.89.93 0 1.47.69 1.47 1.88s-.54 1.89-1.48 1.89zm0 .96c1.603 0 2.587-1.08 2.587-2.86 0-1.77-.99-2.85-2.588-2.85-1.61 0-2.6 1.08-2.6 2.85 0 1.78.98 2.85 2.59 2.85zm11.087-5.6h-1.084l-.98 4.19h-.084l-1.13-4.19h-1.04l-1.13 4.19h-.08l-.99-4.19h-1.1l1.51 5.49h1.11l1.13-4.05h.09l1.13 4.04h1.12l1.51-5.49zm1.38 5.49h1.083v-3.21c0-.86.535-1.39 1.407-1.39.807 0 1.2.44 1.2 1.32v3.28h1.085V10.7c0-1.306-.69-2.043-1.916-2.043-.828 0-1.468.368-1.736.98h-.08v-.874h-1.044v5.493zm6.607 0h1.085V6.62h-1.09v7.636zm5.288-.86c-.943 0-1.473-.69-1.473-1.9 0-1.19.53-1.89 1.47-1.89s1.47.69 1.47 1.88c0 1.2-.54 1.89-1.48 1.89zm0 .96c1.604 0 2.588-1.08 2.588-2.86 0-1.77-.99-2.85-2.588-2.85-1.604 0-2.593 1.08-2.593 2.85 0 1.78.98 2.85 2.59 2.85zm5.943-.93c-.59 0-1.02-.29-1.02-.78 0-.49.344-.74 1.1-.8l1.342-.09v.46c0 .68-.605 1.2-1.422 1.2zm-.278.91c.722 0 1.322-.32 1.65-.87h.086v.77h1.044V10.5c0-1.16-.777-1.845-2.154-1.845-1.246 0-2.134.605-2.245 1.55h1.05c.12-.39.54-.612 1.145-.612.74 0 1.124.328 1.124.908v.48l-1.488.09c-1.31.08-2.05.65-2.05 1.64 0 1.01.77 1.65 1.83 1.65zm6.59 0c.756 0 1.397-.36 1.724-.96h.09v.86h1.04V6.62h-1.09v3.016h-.08c-.3-.606-.93-.964-1.68-.964-1.38 0-2.28 1.1-2.28 2.835 0 1.74.89 2.84 2.28 2.84zm.307-4.7c.908 0 1.478.72 1.478 1.86 0 1.15-.565 1.86-1.478 1.86-.918 0-1.468-.7-1.468-1.87 0-1.16.555-1.86 1.468-1.86zm9.828 3.75c-.943 0-1.473-.7-1.473-1.9 0-1.19.53-1.89 1.47-1.89s1.47.7 1.47 1.89-.54 1.89-1.48 1.89zm0 .96c1.604 0 2.588-1.08 2.588-2.86 0-1.77-.99-2.85-2.588-2.85-1.604 0-2.593 1.08-2.593 2.85 0 1.78.98 2.85 2.59 2.85zm4.148-.11h1.084v-3.21c0-.86.535-1.4 1.407-1.4.81 0 1.21.44 1.21 1.32v3.28h1.09V10.7c0-1.306-.69-2.043-1.91-2.043-.82 0-1.46.368-1.73.98h-.08v-.874h-1.04v5.493zm10.024-6.83v1.37h-.903v.91h.91v3.11c0 1.06.48 1.48 1.69 1.48.21 0 .41-.03.58-.06v-.9c-.15.02-.23.03-.4.03-.54 0-.77-.25-.77-.83V9.7h1.23v-.91h-1.23V7.43h-1.09zm3.86 6.82h1.085v-3.21c0-.83.55-1.39 1.43-1.39.82 0 1.22.44 1.22 1.32v3.28h1.08V10.7c0-1.306-.71-2.048-1.94-2.048-.83 0-1.47.368-1.73.984h-.09V6.62h-1.08v7.636zm8.874-4.68c.802 0 1.327.56 1.352 1.42h-2.774c.06-.856.62-1.42 1.422-1.42zm1.347 3.19c-.202.43-.65.67-1.307.67-.867 0-1.427-.61-1.462-1.578v-.06h3.88v-.38c0-1.725-.925-2.77-2.453-2.77-1.548 0-2.532 1.115-2.532 2.87 0 1.756.97 2.835 2.54 2.835 1.26 0 2.14-.606 2.38-1.59h-1.04zM33.403 22.47c-.033-3.694 3.025-5.492 3.165-5.575-1.732-2.53-4.417-2.874-5.36-2.9-2.255-.24-4.443 1.35-5.59 1.35-1.173 0-2.942-1.328-4.848-1.29-2.453.038-4.748 1.46-6.007 3.664-2.598 4.5-.66 11.1 1.828 14.74 1.25 1.78 2.7 3.77 4.61 3.7 1.87-.08 2.56-1.19 4.81-1.19 2.23 0 2.88 1.19 4.83 1.14 2-.03 3.26-1.79 4.46-3.59 1.44-2.04 2.02-4.05 2.04-4.16-.04-.02-3.88-1.48-3.92-5.91M29.75 11.6c1-1.255 1.69-2.96 1.5-4.69-1.45.065-3.27 1.004-4.31 2.23-.93 1.08-1.75 2.85-1.54 4.514 1.63.12 3.3-.823 4.35-2.057"/></g></svg>