<svg xmlns="http://www.w3.org/2000/svg" viewBox="0 0 150 45"><defs><linearGradient id="a" x1="80.678%" x2="-157.517%" y1="49.415%" y2="49.415%"><stop stop-color="#FEE000" offset="0%"/><stop stop-color="#FCCF0B" offset="19.41%"/><stop stop-color="#FAB318" offset="54.69%"/><stop stop-color="#F9A21B" offset="82.79%"/><stop stop-color="#F99B1C" offset="100%"/></linearGradient><linearGradient id="b" x1="86.315%" x2="-49.85%" y1="17.792%" y2="194.224%"><stop stop-color="#EF4547" offset="0%"/><stop stop-color="#C6186D" offset="100%"/></linearGradient><linearGradient id="c" x1="-50.456%" x2="60.719%" y1="-95.92%" y2="48.803%"><stop stop-color="#279E6F" offset="0%"/><stop stop-color="#4DAB6D" offset="31.68%"/><stop stop-color="#6ABA6A" offset="73.98%"/><stop stop-color="#74C169" offset="100%"/></linearGradient></defs><g fill="none" fill-rule="evenodd"><path fill="#000" d="M0 5.044A5.045 5.045 0 0 1 5.044 0h139.912A5.044 5.044 0 0 1 150 5.044V39.26a5.046 5.046 0 0 1-5.044 5.044H5.044A5.044 5.044 0 0 1 0 39.26V5.043z"/><g fill="#FFF"><path d="M79.49 14.728a3.632 3.632 0 1 1-.001-7.262c2 0 3.63 1.625 3.63 3.63a3.634 3.634 0 0 1-3.63 3.632zm0-1.11a2.521 2.521 0 1 0 0-5.043 2.521 2.521 0 0 0-.001 5.043zM54.876 11.5v2.22H57.8v.806h-4.034v-6.76H57.8v.808h-2.924v2.12h2.622v.806h-2.622zm6.86-2.926v5.952h-1.11V8.574H58.91v-.807h4.54v.807h-1.715zm9.884 0v5.952h-1.11V8.574h-1.714v-.807h4.54v.807H71.62zm-4.942-.806h1.11v6.76h-1.11zm18.006 0h-.656v6.76h1.11V9.25l3.228 5.276h1.11v-6.76h-1.11v4.947L85.34 7.767h-.656zM49.61 10.81h3.037l-.03.963H49.61"/><path d="M52.05 8.548c-.593-.623-1.458-.982-2.487-.982a3.562 3.562 0 0 0-3.564 3.56 3.558 3.558 0 0 0 3.56 3.56c2 .02 3.67-1.39 3.33-3.84v-.035H52c.006.11.01.21.006.32 0 1.75-1.007 2.57-2.428 2.57-1.42 0-2.573-1.15-2.573-2.57s1.153-2.57 2.573-2.57c.71 0 1.327.25 1.76.69l.696-.69z"/></g><g fill="#FFF"><path d="M108.944 19.872h5.72s3.29.56 3.29 4.34-3.29 4.34-3.29 4.34h-5.72v-8.68zm1.11 2.1v4.66h3.882s1.767 0 1.767-2.33-1.767-2.33-1.767-2.33h-3.882z"/><path d="M108.44 19.872h2.017v14.122h-2.017zm10.692 0h2.017v14.122h-2.02zm9.496 13.113c-.556.458-1.445.89-2.848.978-3.214.2-3.216-2.733-3.216-2.93 0-.2-.158-2.59 2.4-2.97 1.81-.27 3.077.178 3.664.463v-.415c-.144-.54-.59-1.55-1.927-1.55-1.83 0-2.24.998-2.24.998l-1.68-.993s.94-1.94 3.76-1.94c3.51 0 4.11 2.42 4.11 3.236V34h-2.01v-1.01zm-.145-3.025s-3.886-1.048-4.02 1.136c-.136 2.183 3.727 1.135 4.073-.413 0-.492-.053-.723-.053-.723zm5.947 3.5l-1.88 4.47h2.016l5.458-12.965h-2.017l-2.568 6.098-2.59-6.147h-2.02l3.59 8.543zm-30.507-5.243l-6.38 2.637s.412 1.46 2.33 1.468c1.502.008 2.35-1.33 2.35-1.33l1.62 1.095S102.535 34.2 99.86 34.2c-3.288 0-4.736-2.875-4.736-4.742 0-1.8 1.15-4.845 4.532-4.845 3.383 0 4.267 3.604 4.267 3.604zm-2.428-.747s-.802-1.22-2.033-.996c-2.605.476-2.277 2.755-2.277 2.755l4.31-1.76zm-9.397-7.598h2.134v14.093h-2.134zm-3.415 5.048l1.973.017v8.892c0 2.27-1.353 4.67-4.537 4.67-3.19 0-4.22-2.83-4.22-2.83l1.81-.76s.55 1.74 2.49 1.74c2.212 0 2.47-2.02 2.47-2.7v-.97s-.766 1.2-2.666 1.2c-2.06 0-4.51-1.77-4.51-4.78s2.306-4.734 4.533-4.796c1.784-.05 2.642 1.184 2.642 1.184v-.88zm-2.498 7.46c1.44 0 2.605-1.32 2.605-2.945 0-1.626-1.166-2.944-2.605-2.944-1.44 0-2.605 1.32-2.605 2.95 0 1.63 1.166 2.95 2.605 2.95zm-10.367 1.816a4.797 4.797 0 0 1-4.803-4.79 4.798 4.798 0 0 1 4.803-4.793c2.652 0 4.802 2.146 4.802 4.792s-2.15 4.79-4.802 4.79zm-.032-1.88c1.49 0 2.7-1.303 2.7-2.91 0-1.61-1.21-2.914-2.7-2.914-1.49 0-2.7 1.304-2.7 2.913 0 1.608 1.21 2.912 2.7 2.912zm-10.358 1.88a4.797 4.797 0 0 1-4.803-4.79 4.798 4.798 0 0 1 4.803-4.793c2.652 0 4.802 2.146 4.802 4.792s-2.15 4.79-4.802 4.79zm-.032-1.88c1.49 0 2.7-1.303 2.7-2.91 0-1.61-1.21-2.914-2.7-2.914-1.49 0-2.7 1.304-2.7 2.913 0 1.608 1.21 2.912 2.7 2.912zm-12.37-6.183h6.34l-.06 2.004h-6.28"/><path d="M58.12 21.416c-1.234-1.3-3.04-2.048-5.187-2.048-4.108 0-7.44 3.323-7.44 7.422 0 4.1 3.332 7.416 7.44 7.422 4.177.038 7.66-2.9 6.965-8.005v-.075h-1.853c.015.213.02.433.015.658.005 3.645-2.1 5.355-5.064 5.355s-5.367-2.397-5.367-5.355c0-2.958 2.4-5.355 5.36-5.355 1.48 0 2.77.506 3.67 1.43l1.45-1.45z"/></g><g fill-rule="nonzero"><path fill="#5BC9F4" d="M11.54 8.215c-.333.443-.444.886-.444 1.66V34.25c0 .664.222 1.218.554 1.55l.11.11L25.5 22.174v-.22L11.538 8.214z"/><path fill="url(#a)" d="M18.833 19.06l-4.542-4.543v-.332l4.55-4.543.11.11 5.43 3.103c1.55.886 1.55 2.327 0 3.213l-5.54 2.99z" transform="translate(11.096 7.767)"/><path fill="url(#b)" d="M18.944 18.948l-4.653-4.653L.45 28.143c.554.554 1.33.554 2.327.11l16.175-9.305" transform="translate(11.096 7.767)"/><path fill="url(#c)" d="M18.944 9.642L2.77.447C1.773-.107.997.004.443.557l13.847 13.74 4.654-4.654z" transform="translate(11.096 7.767)"/></g></g></svg>