<svg width="1440" height="622" fill="none" xmlns="http://www.w3.org/2000/svg"><mask id="a" maskUnits="userSpaceOnUse" x="0" y="0" width="1440" height="622" ><path fill="#FFF3E5" d="M0 0h1440v622H0z"/></mask><g mask="url(#a)"><path opacity=".4" d="M567.006 489.815c20.978-2.81 41.955-5.218 62.932-7.426 20.978-2.208 39.21-3.613 58.815-4.817 19.605-1.204 40.583-2.208 60.776-3.211.98 0 2.156 0 2.941-1.204a13.026 13.026 0 00-4.314-6.022c-22.585-26.399-40.14-56.897-51.757-89.914a427.633 427.633 0 01-18.428-67.837c-1.569-8.63-2.745-9.433-11.371-8.63h-45.288c-5.685 0-6.47 0-6.862-6.824-2.186-26.593 4.747-53.135 19.605-75.062 0 0 2.549-1.606 1.373-3.412-1.177-1.807-1.765 0-2.353 1.003-24.788 19.749-41.381 48.348-46.464 80.08-1.372 6.824-2.156 7.426-9.018 7.827-14.116 1.004-28.231 2.008-42.151 3.814l-39.21 4.616c-6.077 0-6.665 0-8.038-6.222a181.134 181.134 0 010-77.471 91.746 91.746 0 003.137-15.654 21.678 21.678 0 00-6.47 7.024c-12.948 19.479-20.904 41.978-23.134 65.429a236.314 236.314 0 00-1.372 26.292c0 5.619 0 6.422-6.274 7.827h-2.548a408.296 408.296 0 00-48.817 10.838c-6.515 2.636-13.946.404-18.036-5.419l-5.294-6.422c-12.751-17.57-22.739-37.073-29.603-57.802l-5.293-14.049a69.4 69.4 0 000 22.077c1.345 22.375 7.504 44.169 18.036 63.823a42.977 42.977 0 012.157 4.215c.38.874.385 1.872.012 2.749a3.37 3.37 0 01-1.973 1.867l-4.313 1.605a535.449 535.449 0 00-85.478 33.517c-5.218 3.001-11.709 2.361-16.272-1.605a221.771 221.771 0 01-39.21-37.531c-4.901-5.821-9.606-11.842-14.704-18.264v4.817c7.039 22.948 18.357 44.282 33.329 62.819 4.117 5.018 3.725 6.021-1.569 9.433l-2.352 1.405c-26.159 14.55-50.238 32.717-71.558 53.989-3.045 3.144-7.248 4.821-11.567 4.616a118.718 118.718 0 01-43.327-9.032c-1.961 0-3.921-2.408-6.274-1.605a5.047 5.047 0 001.96 3.612 79.866 79.866 0 0019.605 16.659 74.159 74.159 0 0023.33 8.429c5.319.625 9.777 4.402 11.371 9.634 5.49 15.655 11.371 31.51 17.057 47.365 2.548 7.226 1.568 9.032-5.882 10.036a95.854 95.854 0 01-44.699-3.011c-52.389-18.222-82.858-74.022-70.578-129.252 5.938-26.041 22.796-48.073 46.071-60.21 3.137-2.007 8.235-2.409 9.215-6.222.98-3.813-2.157-7.426-3.529-10.838-13.326-28.996-14.32-62.349-2.745-92.122 13.418-36.347 45.918-61.671 83.714-65.228a131.841 131.841 0 0141.562 2.408c7.058 1.405 8.822 0 8.626-7.024-.5-22.717 6.397-44.96 19.605-63.221 17.374-23.933 42.317-40.956 70.578-48.169a71.435 71.435 0 0114.508-2.81c18.826-.688 37.456 4.115 53.718 13.849a194.228 194.228 0 0131.368 21.475c5.489 4.416 6.077 4.416 10.783-1.204l1.764-2.208a147.062 147.062 0 0133.917-27.496c25.127-17.553 58.194-17.553 83.321 0 14.034 9.218 26.542 20.668 37.053 33.919a242.23 242.23 0 0123.722 36.126c2.941 5.419 3.725 5.619 9.215 3.211a32.135 32.135 0 0114.311-3.613c29.685-1.136 58.579 9.938 80.237 30.752 21.657 20.814 34.276 49.636 35.041 80.036 2.78 35.61-3.009 71.375-16.86 104.164 0 1.204-1.961 2.609 0 4.415a18.147 18.147 0 006.665-8.028c2.941-4.817 5.882-9.834 8.43-14.852 12.317-22.661 19.989-47.656 22.546-73.456 2.473-29.539-3.091-59.201-16.076-85.7-13.57-31.029-38.81-55.131-69.99-66.834a131.473 131.473 0 00-48.816-8.028c-3.725 0-6.666 0-8.234-4.616-6.605-15.602-16.755-29.364-29.604-40.14-29.163-28.88-70.806-40.333-110.18-30.306-18.14 4.415-35.345 12.167-50.777 22.88a9.234 9.234 0 01-10.979 0 102.41 102.41 0 00-19.605-10.236c-24.895-10.138-51.686-14.457-78.42-12.644-36.729.96-70.688 20.215-90.967 51.58-9.964 15.81-17.193 33.258-21.369 51.58-1.765 7.025-2.353 7.426-9.215 7.226-23.611-.49-47.078 3.878-69.009 12.845-16.628 6.213-31.274 16.972-42.347 31.108-20.677 26.925-31.311 60.509-29.996 94.732a220.202 220.202 0 004.51 35.524 7.79 7.79 0 01-.178 6.432c-.983 2.012-2.783 3.478-4.92 4.004a35.423 35.423 0 00-7.254 4.817 192.583 192.583 0 00-23.33 28.901C11.22 383.601 4.743 431.964 20.42 475.164c20.676 53.61 70.751 89.289 127.04 90.516a249.138 249.138 0 0049.013-4.215c6.469-1.003 6.861-2.007 4.901-8.63-6.274-20.07-12.547-41.344-19.605-62.017-2.047-4.486-.925-9.819 2.745-13.045a352.136 352.136 0 0141.562-35.926c36.11-25.022 75.174-45.253 116.258-60.21a946.65 946.65 0 01134.882-37.331c25.683-5.218 51.758-9.433 78.42-12.845 17.841-2.408 35.681-4.616 53.522-6.222 17.841-1.605 30.976-2.408 46.464-3.411 5.489 0 6.47 0 7.058 6.021a289.257 289.257 0 0014.115 61.615c2.745 9.032 6.274 17.862 9.215 26.693 1.372 4.014 0 5.018-3.137 5.62l-8.038 1.003c-29.408 2.409-58.815 6.423-87.635 11.24a1020.428 1020.428 0 00-150.37 36.327c-49.409 15.848-96.846 37.537-141.352 64.626-27.112 16.113-52.03 35.818-74.107 58.605a15.417 15.417 0 00-4.705 6.422l4.117-2.408c46.629-28.891 96.709-51.49 148.998-67.235a1201.825 1201.825 0 01129.981-31.109c21.762-2.609 44.111-6.222 67.245-9.433z" fill="#E9E9E9"/></g></svg>