<svg xmlns="http://www.w3.org/2000/svg" fill="none" viewBox="0 0 147 45"><defs/><g clip-path="url(#clip0)"><path fill="#000" d="M136.626.5H8.181c-.73.01-1.458.073-2.179.188a7.249 7.249 0 00-2.068.685A6.91 6.91 0 002.17 2.674a6.987 6.987 0 00-1.281 1.76 7.182 7.182 0 00-.682 2.069C.087 7.22.023 7.948.014 8.677V36.332c.008.735.073 1.468.193 2.193.12.72.35 1.417.682 2.068.33.649.762 1.24 1.28 1.751a6.831 6.831 0 001.765 1.283c.652.329 1.349.56 2.068.685.721.115 1.45.178 2.18.188H138.808c.73-.01 1.458-.073 2.179-.188a7.497 7.497 0 002.078-.685 6.91 6.91 0 001.76-1.296 7.09 7.09 0 001.285-1.752 7.16 7.16 0 00.672-2.054c.121-.719.188-1.446.203-2.174v-1.002-24.494V9.67 8.668a14.81 14.81 0 00-.203-2.174 7.288 7.288 0 00-.672-2.069 7.034 7.034 0 00-3.045-3.038 7.21 7.21 0 00-2.078-.68c-.72-.12-1.449-.184-2.179-.193h-1L136.626.5z"/><path fill="#fff" d="M54.516 30.252h-5.1l-1.248 3.405h-2.244l4.994-12.717h2.119l5.114 12.713h-2.36l-1.275-3.401zm-4.46-1.729h3.81l-1.382-3.64a27.334 27.334 0 01-.553-1.668c-.165.537-.34 1.089-.534 1.65l-1.34 3.658zM59.164 26.492c0-.704-.028-1.476-.074-2.299h2.041c.077.399.13.8.161 1.205a3.842 3.842 0 012.903-1.38 3.285 3.285 0 013.063 1.991c.36.825.53 1.72.498 2.62.029.966-.16 1.925-.553 2.808-.34.74-.894 1.36-1.59 1.784a4.55 4.55 0 01-2.358.606 6 6 0 01-1.908-.326v3.911l-2.17.184-.013-11.104zm5.735 4.835a4.308 4.308 0 00.664-2.602c0-1.057-.185-1.823-.553-2.298a1.736 1.736 0 00-1.493-.717 2.352 2.352 0 00-1.17.294 4.544 4.544 0 00-1.023.8v5.056c.24.114.495.198.756.248.282.06.569.092.857.092a2.262 2.262 0 001.962-.869v-.004zM69.147 26.492c0-.704-.023-1.476-.07-2.299h2.037c.079.398.132.8.161 1.205a3.841 3.841 0 012.902-1.38 3.285 3.285 0 013.064 1.991c.36.825.53 1.72.497 2.62a6.422 6.422 0 01-.566 2.831 4.057 4.057 0 01-1.59 1.784 4.547 4.547 0 01-2.354.606 6.026 6.026 0 01-1.911-.326v3.911l-2.17.184V26.492zm5.712 4.835a4.308 4.308 0 00.663-2.602c0-1.057-.182-1.823-.548-2.298a1.745 1.745 0 00-1.465-.712 2.352 2.352 0 00-1.17.294 4.54 4.54 0 00-1.022.8v5.056c.24.113.494.197.755.248.282.06.569.091.857.092a2.262 2.262 0 001.93-.887v.009zM81.838 33.041a5.26 5.26 0 01-2.165-2.224 7.286 7.286 0 01-.755-3.424 7.098 7.098 0 01.87-3.636 5.578 5.578 0 012.368-2.238 7.417 7.417 0 013.363-.75 8.954 8.954 0 012.1.24 9.23 9.23 0 011.843.661l-.553 1.669a7.68 7.68 0 00-3.28-.832 4.615 4.615 0 00-2.303.565c-.686.38-1.24.96-1.585 1.664a5.807 5.807 0 00-.552 2.652 6.35 6.35 0 00.423 2.413c.267.68.737 1.263 1.346 1.669.69.427 1.491.641 2.303.615.424 0 .848-.036 1.267-.105a7.05 7.05 0 001.188-.308v-2.57h-2.943v-1.686h5.067v5.354a11.5 11.5 0 01-2.303.782c-.783.18-1.584.27-2.387.27a6.803 6.803 0 01-3.312-.78zM97.671 33.644a8.248 8.248 0 01-.152-1.255c-.364.42-.806.763-1.303 1.011a3.9 3.9 0 01-1.843.414 3.34 3.34 0 01-1.488-.322 2.44 2.44 0 01-1.069-.965 2.94 2.94 0 01-.396-1.572 2.707 2.707 0 01.995-2.201c.673-.534 1.79-.8 3.35-.8.576 0 1.152.041 1.722.124v-.184c0-.837-.18-1.43-.539-1.77a2.132 2.132 0 00-1.538-.514c-.501.005-1 .073-1.484.202a8.15 8.15 0 00-1.382.482l-.345-1.58a9.002 9.002 0 011.534-.46 8.92 8.92 0 012.004-.216 5.239 5.239 0 012.091.372 2.761 2.761 0 011.331 1.246c.347.765.505 1.602.461 2.44v3.764c0 .396 0 .989.07 1.784H97.67zm-1.303-1.756c.42-.194.797-.469 1.11-.809v-1.746a15.298 15.298 0 00-1.451-.097c-.898 0-1.52.147-1.843.437a1.449 1.449 0 00-.516 1.167 1.34 1.34 0 00.373 1.044c.283.235.646.355 1.014.335a3.022 3.022 0 001.331-.322l-.018-.009zM101.541 31.369V20.18l2.165-.179v10.98c-.026.3.047.6.208.855a.782.782 0 00.654.249c.193-.01.385-.042.571-.097l.258 1.553a3.361 3.361 0 01-.751.198c-.278.049-.56.075-.843.078-1.505 0-2.259-.816-2.262-2.45zM106.949 31.369V20.18l2.165-.179v10.98c-.026.3.047.6.208.855a.8.8 0 00.654.249c.195-.01.388-.042.576-.097l.253 1.553c-.242.094-.494.16-.751.198-.278.05-.56.075-.843.078-1.505 0-2.259-.816-2.262-2.45zM119.811 29.186h-6.21c.099 1.979 1.045 2.97 2.838 2.973.466 0 .929-.053 1.382-.16a8.2 8.2 0 001.345-.437l.461 1.484a8.1 8.1 0 01-3.593.773 5.272 5.272 0 01-2.552-.57 3.68 3.68 0 01-1.548-1.618 5.857 5.857 0 01-.507-2.606 6.141 6.141 0 01.553-2.703 4.045 4.045 0 011.548-1.728 4.349 4.349 0 012.303-.598 3.861 3.861 0 012.248.63 3.774 3.774 0 011.336 1.668c.293.731.44 1.512.433 2.299l-.037.593zm-2.119-1.38a2.711 2.711 0 00-.571-1.69 1.742 1.742 0 00-1.382-.566 1.845 1.845 0 00-1.382.57 3.05 3.05 0 00-.719 1.696l4.054-.01zM121.562 26.575c0-.524 0-1.315-.069-2.381h2.031c.032.262.065.579.102.92.036.34.05.665.064.89.218-.368.466-.719.742-1.047.241-.275.53-.506.852-.68a2.308 2.308 0 011.115-.267c.291-.006.581.03.861.106l-.271 1.88a2.315 2.315 0 00-.705-.097 2.273 2.273 0 00-1.336.39 5.33 5.33 0 00-1.221 1.288v6.08h-2.165v-7.082zM128.564 37.514a4.956 4.956 0 01-.783-.189l.396-1.558c.182.049.367.087.553.115.208.038.419.059.631.06.963 0 1.681-.616 2.165-1.839l.138-.349-3.501-9.55h2.331l1.76 5.335c.227.687.412 1.387.553 2.096.166-.68.359-1.379.58-2.05l1.783-5.377h2.193l-3.492 9.592a9.986 9.986 0 01-1.064 2.193 3.744 3.744 0 01-1.35 1.236 4.03 4.03 0 01-1.88.377c-.339 0-.679-.032-1.013-.092zM45.915 8.558h3.916l-.11.919h-2.659v1.838h2.506v.883h-2.506v2.027h2.801l-.097.956h-3.85V8.558zM52.53 11.807l-2.063-3.25h1.303l1.382 2.386 1.474-2.385h1.267l-2.045 3.217 2.216 3.429h-1.3l-1.584-2.616-1.612 2.616H50.3l2.23-3.397zM56.93 8.557h1.792a3.133 3.133 0 011.934.51 1.77 1.77 0 01.669 1.485c.01.405-.094.805-.3 1.154-.201.327-.492.59-.838.758-.386.18-.809.27-1.235.262a5.083 5.083 0 01-.875-.092v2.556H56.93V8.557zm2.879 2.96a1.208 1.208 0 00.368-.919 1.024 1.024 0 00-.373-.882c-.33-.2-.715-.295-1.1-.272h-.627v2.358c.22.037.44.06.663.07.396.027.788-.1 1.092-.355h-.023zM62.458 8.558h1.147v5.653h2.764l-.097.979h-3.8l-.014-6.632zM68.124 14.868a2.793 2.793 0 01-1.138-1.163 3.784 3.784 0 01-.387-1.75 3.909 3.909 0 01.415-1.84 2.867 2.867 0 011.184-1.213 3.757 3.757 0 011.842-.427 3.397 3.397 0 011.732.413 2.76 2.76 0 011.106 1.168c.262.543.393 1.14.382 1.742a3.97 3.97 0 01-.414 1.838c-.267.514-.681.938-1.189 1.218a3.619 3.619 0 01-1.805.423 3.397 3.397 0 01-1.728-.409zm2.976-.813c.32-.22.567-.531.71-.892.163-.412.242-.853.23-1.296a3.521 3.521 0 00-.212-1.273 1.88 1.88 0 00-.673-.892 2.049 2.049 0 00-1.198-.336 2.044 2.044 0 00-1.183.34c-.326.231-.58.55-.728.92a3.152 3.152 0 00-.245 1.24c-.008.44.07.878.23 1.288.134.37.379.691.701.919.347.23.758.346 1.175.33.416.005.824-.117 1.17-.348h.023zM74.523 8.557h2.082c.61-.04 1.215.121 1.723.46a1.55 1.55 0 01.585 1.3 1.94 1.94 0 01-.207.92 2.07 2.07 0 01-.526.63c-.192.161-.41.288-.645.377l2.046 2.928h-1.322l-1.728-2.63h-.847v2.63h-1.147l-.014-6.615zm1.801 3.14c.257.005.511-.051.742-.166.206-.102.38-.261.497-.46.124-.206.186-.444.18-.684a.843.843 0 00-.318-.731 1.57 1.57 0 00-.921-.23h-.83v2.27h.65zM80.488 8.558h3.916l-.106.919h-2.663v1.838h2.511v.883h-2.51v2.027h2.805l-.101.956h-3.852V8.558zM88.67 8.558h1.147v6.632H88.67V8.558zM92.853 9.513h-2.06l.102-.96h5.178l-.106.96h-1.963v5.677h-1.147l-.004-5.677zM101.053 14.868a2.76 2.76 0 01-1.115-1.163 3.786 3.786 0 01-.387-1.75 3.908 3.908 0 01.41-1.84 2.893 2.893 0 011.184-1.213 3.772 3.772 0 011.843-.427 3.381 3.381 0 011.727.413c.468.265.848.661 1.092 1.14a3.74 3.74 0 01.382 1.742 3.859 3.859 0 01-.414 1.839 2.906 2.906 0 01-1.184 1.218 3.642 3.642 0 01-1.806.423 3.395 3.395 0 01-1.732-.382zm2.976-.813c.323-.22.575-.53.723-.892.16-.413.237-.854.226-1.296a3.566 3.566 0 00-.212-1.278 1.921 1.921 0 00-.673-.892 2.028 2.028 0 00-1.193-.33 2.041 2.041 0 00-1.188.335c-.326.23-.578.55-.728.92a3.12 3.12 0 00-.245 1.25c-.006.44.072.876.231 1.286.136.37.382.691.705.92.346.229.755.345 1.17.33.421.005.834-.118 1.184-.353zM107.474 8.558h1.318l3.285 5.147a23.668 23.668 0 01-.042-1.35V8.557h1.069v6.632h-1.281l-3.335-5.221c.032.593.051 1.117.051 1.576v3.65h-1.069l.004-6.637z"/><path fill="#C00020" d="M17.524 8.502c-5.782 0-7.896 2.11-7.896 7.878v12.24c0 5.763 2.114 7.873 7.896 7.873h12.263c5.777 0 7.896-2.11 7.896-7.873V16.38c0-5.768-2.115-7.878-7.891-7.878H17.524z"/><path fill="#fff" d="M15.184 22.502h.746v3.677h-.746v-1.484h-1.682v1.484h-.741v-3.677h.741v1.476h1.682v-1.476zm4.192 2.096c0 .593-.295.92-.834.92-.539 0-.838-.327-.838-.92V22.53h-.742v2.091c0 1.03.571 1.623 1.57 1.623 1 0 1.59-.602 1.59-1.65V22.53h-.746v2.068zm8.6.418l-.852-2.514h-.608l-.829 2.514-.81-2.514h-.793l1.276 3.677h.617l.834-2.404.834 2.404h.622l1.276-3.677h-.774l-.792 2.514zm2.921-.432h1.35v-.666h-1.35v-.75h1.963v-.666h-2.7v3.677h2.764v-.666h-2.031l.004-.929zm2.92 1.572h.733v-3.654h-.732v3.654zm-12.22-.758l-.337.763h-.756l1.613-3.677h.659l1.607 3.677h-.778l-.332-.763h-1.677zm.276-.662h1.105l-.562-1.31-.543 1.31zM23.655 17.842a4.686 4.686 0 01-3.3-1.368 4.665 4.665 0 01-1.37-3.293h.663a3.991 3.991 0 001.175 2.83 4.008 4.008 0 002.837 1.169 4.017 4.017 0 002.833-1.173 3.998 3.998 0 001.175-2.826h.659a4.66 4.66 0 01-1.37 3.294 4.682 4.682 0 01-3.302 1.367z"/></g><defs><clipPath id="clip0"><rect width="147" height="44" fill="#fff" transform="translate(0 .5)"/></clipPath></defs></svg>